<?xml version="1.0" standalone="no"?>
<!DOCTYPE svg PUBLIC "-//W3C//DTD SVG 1.1//EN" "http://www.w3.org/Graphics/SVG/1.1/DTD/svg11.dtd">
<svg width="100%" height="100%" viewBox="0 0 960 100" version="1.1" xmlns="http://www.w3.org/2000/svg" xmlns:xlink="http://www.w3.org/1999/xlink" xml:space="preserve" style="fill-rule:evenodd;clip-rule:evenodd;stroke-linejoin:round;stroke-miterlimit:1.41421;">
    <g transform="matrix(0.704935,0,0,0.704935,209.29,15.0129)">
        <g>
            <g>
                <g transform="matrix(0.8551,0,0,0.8551,207.315,5.32467)">
                    <path d="M145.18,58.236L145.18,55.288C145.18,55.014 145.043,54.877 144.769,54.877L139.284,54.877C134.209,54.877 132.152,56.316 132.152,59.334C132.152,62.077 134.141,63.447 137.912,63.447C142.369,63.447 145.18,61.733 145.18,58.236M154.78,65.711C154.78,67.767 153.134,69.276 150.94,69.276C149.569,69.276 148.472,68.796 147.717,67.699L146.62,66.052L146.552,66.052C144.632,68.315 141.272,69.687 136.816,69.687C128.998,69.687 124.816,65.985 124.816,59.676C124.816,52.545 129.821,49.117 137.981,49.117L144.769,49.117C145.043,49.117 145.18,48.98 145.18,48.705L145.18,47.882C145.18,44.043 142.987,41.781 137.776,41.781C135.444,41.781 133.181,42.466 131.741,43.152C131.055,43.425 130.369,43.562 129.752,43.562C127.902,43.562 126.597,42.329 126.597,40.41C126.597,39.311 127.147,38.078 128.519,37.392C130.644,36.158 134.073,35.129 138.597,35.129C147.993,35.129 152.449,39.793 152.449,47.951L152.449,58.374C152.449,60.089 152.655,60.774 153.134,61.665L154.162,63.447C154.574,64.202 154.78,64.957 154.78,65.711" style="fill:rgb(71,71,71);"/>
                    <path d="M181.27,58.442C181.749,57.002 181.956,55.014 181.956,52.408C181.956,49.802 181.749,47.814 181.27,46.375C180.242,43.22 178.047,41.986 175.167,41.986C172.219,41.986 170.025,43.22 168.997,46.375C168.517,47.814 168.311,49.802 168.311,52.408C168.311,55.014 168.517,57.002 168.997,58.442C170.025,61.596 172.219,62.83 175.167,62.83C178.047,62.83 180.242,61.596 181.27,58.442M160.63,77.573L160.63,39.586C160.63,37.048 162.207,35.541 164.471,35.541C166.733,35.541 167.967,36.912 168.311,39.037L168.379,39.037C169.956,36.775 172.63,35.129 177.293,35.129C182.779,35.129 186.892,38.283 188.607,43.494C189.43,46.031 189.773,48.705 189.773,52.408C189.773,56.111 189.43,58.784 188.607,61.322C186.892,66.532 182.779,69.687 177.293,69.687C172.63,69.687 169.82,67.905 168.379,65.779L168.311,65.779L168.311,77.573C168.311,80.11 166.733,81.619 164.471,81.619C162.207,81.619 160.63,80.11 160.63,77.573" style="fill:rgb(71,71,71);"/>
                    <path d="M205.44,69.346C198.719,69.346 196.387,65.986 196.387,59.677L196.387,26.01C196.387,23.473 197.965,21.964 200.227,21.964C202.422,21.964 204.068,23.473 204.068,26.01L204.068,59.06C204.068,61.392 204.823,62.214 206.743,62.489C209.004,62.762 209.965,64.134 209.965,65.849C209.965,67.837 208.731,69.346 205.988,69.346L205.44,69.346L205.44,69.346Z" style="fill:rgb(71,71,71);"/>
                    <path d="M234.38,58.236L234.38,55.288C234.38,55.014 234.243,54.877 233.97,54.877L228.484,54.877C223.409,54.877 221.353,56.316 221.353,59.334C221.353,62.077 223.341,63.447 227.112,63.447C231.568,63.447 234.38,61.733 234.38,58.236M243.981,65.711C243.981,67.767 242.334,69.276 240.14,69.276C238.769,69.276 237.672,68.796 236.917,67.699L235.82,66.052L235.752,66.052C233.832,68.315 230.472,69.687 226.015,69.687C218.198,69.687 214.016,65.985 214.016,59.676C214.016,52.545 219.022,49.117 227.181,49.117L233.97,49.117C234.243,49.117 234.38,48.98 234.38,48.705L234.38,47.882C234.38,44.043 232.186,41.781 226.975,41.781C224.644,41.781 222.381,42.466 220.94,43.152C220.256,43.425 219.57,43.562 218.953,43.562C217.101,43.562 215.798,42.329 215.798,40.41C215.798,39.311 216.348,38.078 217.719,37.392C219.844,36.158 223.273,35.129 227.798,35.129C237.193,35.129 241.649,39.793 241.649,47.951L241.649,58.374C241.649,60.089 241.855,60.774 242.334,61.665L243.362,63.447C243.775,64.202 243.981,64.957 243.981,65.711" style="fill:rgb(71,71,71);"/>
                    <path d="M251.89,68.934C249.764,68.934 248.393,67.631 248.393,65.574C248.393,64.066 249.216,62.695 250.792,60.842L266.015,42.741L266.015,42.604L252.851,42.604C250.657,42.604 249.354,41.164 249.354,39.245C249.354,37.325 250.657,35.884 252.851,35.884L272.324,35.884C274.449,35.884 275.822,37.187 275.822,39.245C275.822,40.752 275.066,42.123 273.421,44.043L258.405,62.078L258.405,62.214L272.324,62.214C274.519,62.214 275.822,63.654 275.822,65.574C275.822,67.494 274.519,68.934 272.324,68.934L251.89,68.934L251.89,68.934Z" style="fill:rgb(71,71,71);"/>
                    <path d="M300.74,58.236L300.74,55.288C300.74,55.014 300.603,54.877 300.329,54.877L294.844,54.877C289.768,54.877 287.713,56.316 287.713,59.334C287.713,62.077 289.7,63.447 293.472,63.447C297.929,63.447 300.74,61.733 300.74,58.236M310.34,65.711C310.34,67.767 308.695,69.276 306.5,69.276C305.129,69.276 304.032,68.796 303.277,67.699L302.18,66.052L302.112,66.052C300.192,68.315 296.832,69.687 292.376,69.687C284.557,69.687 280.376,65.985 280.376,59.676C280.376,52.545 285.381,49.117 293.541,49.117L300.329,49.117C300.603,49.117 300.74,48.98 300.74,48.705L300.74,47.882C300.74,44.043 298.546,41.781 293.335,41.781C291.003,41.781 288.741,42.466 287.301,43.152C286.614,43.425 285.929,43.562 285.312,43.562C283.461,43.562 282.158,42.329 282.158,40.41C282.158,39.311 282.707,38.078 284.077,37.392C286.204,36.158 289.633,35.129 294.158,35.129C303.553,35.129 308.009,39.793 308.009,47.951L308.009,58.374C308.009,60.089 308.214,60.774 308.695,61.665L309.722,63.447C310.134,64.202 310.34,64.957 310.34,65.711" style="fill:rgb(71,71,71);"/>
                    <path d="M316.06,39.586C316.06,37.049 317.637,35.541 319.899,35.541C322.163,35.541 323.397,36.981 323.739,38.969L323.808,38.969C325.248,36.912 328.128,35.129 332.516,35.129C336.424,35.129 339.579,36.706 341.567,39.519L341.636,39.519C344.172,36.775 347.464,35.129 352.196,35.129C359.874,35.129 364.194,40.34 364.194,47.403L364.194,65.232C364.194,67.768 362.618,69.276 360.356,69.276C358.092,69.276 356.515,67.768 356.515,65.232L356.515,49.186C356.515,44.936 354.389,41.986 350.276,41.986C346.298,41.986 343.966,44.936 343.966,49.186L343.966,65.232C343.966,67.768 342.39,69.276 340.127,69.276C337.865,69.276 336.288,67.768 336.288,65.232L336.288,49.186C336.288,44.936 334.161,41.986 330.048,41.986C326.071,41.986 323.739,44.936 323.739,49.186L323.739,65.232C323.739,67.768 322.163,69.276 319.899,69.276C317.637,69.276 316.06,67.768 316.06,65.232L316.06,39.586Z" style="fill:rgb(71,71,71);"/>
                    <path d="M391.7,45.894C390.808,43.22 388.34,41.642 385.255,41.642C382.099,41.642 379.632,43.22 378.741,45.894C378.467,46.716 378.329,47.54 378.329,48.705C378.329,48.98 378.467,49.117 378.741,49.117L391.7,49.117C391.973,49.117 392.111,48.98 392.111,48.705C392.111,47.54 391.973,46.716 391.7,45.894M371.746,60.499C371.06,58.373 370.581,55.836 370.581,52.408C370.581,48.98 370.992,46.374 371.678,44.248C373.53,38.489 378.603,35.128 385.186,35.128C391.973,35.128 396.911,38.625 398.763,44.248C399.448,46.443 399.859,49.048 399.859,52.203C399.859,53.779 398.9,54.876 397.186,54.876L378.741,54.876C378.467,54.876 378.329,55.014 378.329,55.288C378.329,56.248 378.535,57.071 378.808,57.825C379.906,61.046 382.512,62.83 386.283,62.83C389.095,62.83 390.946,62.008 393.071,60.568C393.964,59.951 394.854,59.471 395.884,59.471C397.872,59.471 399.106,60.841 399.106,62.694C399.106,63.997 398.556,64.887 397.528,65.71C394.579,68.11 390.946,69.687 385.597,69.687C378.535,69.687 373.597,66.258 371.746,60.499" style="fill:rgb(71,71,71);"/>
                </g>
                <g transform="matrix(0.395746,0,0,0.395746,164.381,29.9801)">
                    <g id="path68" transform="matrix(2.26923,0,0,-2.26923,-303.504,776.556)">
                        <clipPath id="_clip1">
                            <path d="M239.032,373.393L196.898,349.078C195.322,348.169 194.353,346.49 194.353,344.671L194.353,296.005C194.353,294.187 195.322,292.508 196.897,291.597L239.03,267.263C240.606,266.354 242.546,266.354 244.121,267.263L286.245,291.597C287.819,292.508 288.788,294.187 288.788,296.005L288.788,344.673C288.788,346.49 287.819,348.169 286.243,349.078L244.12,373.393C243.333,373.847 242.454,374.075 241.576,374.075C240.697,374.075 239.819,373.847 239.032,373.393"/>
                        </clipPath>
                        <g clip-path="url(#_clip1)">
                            <path d="M239.032,373.393L196.898,349.078C195.322,348.169 194.353,346.49 194.353,344.671L194.353,296.005C194.353,294.187 195.322,292.508 196.897,291.597L239.03,267.263C240.606,266.354 242.546,266.354 244.121,267.263L286.245,291.597C287.819,292.508 288.788,294.187 288.788,296.005L288.788,344.673C288.788,346.49 287.819,348.169 286.243,349.078L244.12,373.393C243.333,373.847 242.454,374.075 241.576,374.075C240.697,374.075 239.819,373.847 239.032,373.393" style="fill:url(#_Linear2);fill-rule:nonzero;"/>
                        </g>
                    </g>
                    <g id="path94" transform="matrix(2.26923,0,0,-2.26923,-303.504,776.556)">
                        <clipPath id="_clip3">
                            <path d="M195.4,292.914C195.801,292.389 196.306,291.939 196.897,291.597L233.04,270.723L239.057,267.263C239.957,266.744 240.984,266.524 241.993,266.598C242.33,266.626 242.666,266.688 242.994,266.783L287.424,348.14C287.084,348.505 286.688,348.822 286.243,349.078L258.655,365.003L244.076,373.393C243.659,373.633 243.212,373.806 242.753,373.919L195.4,292.914Z"/>
                        </clipPath>
                        <g clip-path="url(#_clip3)">
                            <path d="M195.4,292.914C195.801,292.389 196.306,291.939 196.897,291.597L233.04,270.723L239.057,267.263C239.957,266.744 240.984,266.524 241.993,266.598C242.33,266.626 242.666,266.688 242.994,266.783L287.424,348.14C287.084,348.505 286.688,348.822 286.243,349.078L258.655,365.003L244.076,373.393C243.659,373.633 243.212,373.806 242.753,373.919L195.4,292.914Z" style="fill:url(#_Linear4);fill-rule:nonzero;"/>
                        </g>
                    </g>
                    <g id="path154" transform="matrix(2.26923,0,0,-2.26923,-303.504,776.556)">
                        <path d="M241.065,374.048C240.36,373.978 239.667,373.759 239.032,373.393L197.018,349.148L242.311,266.635C242.939,266.726 243.554,266.936 244.121,267.263L286.245,291.597C287.546,292.35 288.434,293.628 288.703,295.074L242.525,373.964C242.184,374.032 241.837,374.066 241.49,374.066C241.348,374.066 241.206,374.06 241.065,374.048" style="fill:url(#_Linear5);fill-rule:nonzero;"/>
                    </g>
                    <g id="path222" transform="matrix(2.26923,0,0,-2.26923,-303.504,776.556)">
                        <clipPath id="_clip6">
                            <path d="M239.032,373.393L196.898,349.078C195.323,348.169 194.353,346.49 194.353,344.671L194.353,296.005C194.353,294.187 195.323,292.508 196.897,291.597L239.03,267.263C240.606,266.354 242.546,266.354 244.121,267.263L286.245,291.597C287.819,292.508 288.788,294.187 288.788,296.005L288.788,344.673C288.788,346.49 287.819,348.169 286.243,349.078L244.12,373.393C243.333,373.847 242.454,374.075 241.576,374.075C240.697,374.075 239.819,373.847 239.032,373.393"/>
                        </clipPath>
                        <g clip-path="url(#_clip6)">
                            <path d="M286.351,291.597L244.174,267.264C243.594,266.929 242.961,266.719 242.313,266.631L243.153,265.101L290,292.218L290,292.857L288.842,294.836C288.495,293.488 287.579,292.308 286.351,291.597" style="fill:url(#_Linear7);fill-rule:nonzero;"/>
                        </g>
                    </g>
                    <g id="path252" transform="matrix(2.26923,0,0,-2.26923,-303.504,776.556)">
                        <clipPath id="_clip8">
                            <path d="M239.032,373.393L196.898,349.078C195.323,348.169 194.353,346.49 194.353,344.671L194.353,296.005C194.353,294.187 195.323,292.508 196.897,291.597L239.03,267.263C240.606,266.354 242.546,266.354 244.121,267.263L286.245,291.597C287.819,292.508 288.788,294.187 288.788,296.005L288.788,344.673C288.788,346.49 287.819,348.169 286.243,349.078L244.12,373.393C243.333,373.847 242.454,374.075 241.576,374.075C240.697,374.075 239.819,373.847 239.032,373.393"/>
                        </clipPath>
                        <g clip-path="url(#_clip8)">
                            <path d="M286.351,291.597L244.174,267.264C243.594,266.929 242.961,266.719 242.313,266.631L243.153,265.101L290,292.218L290,292.857L288.842,294.836C288.495,293.488 287.579,292.308 286.351,291.597" style="fill:url(#_Linear9);fill-rule:nonzero;"/>
                        </g>
                    </g>
                </g>
                <g transform="matrix(1,0,0,1,-129.004,16.9591)">
                    <path d="M389.84,-0.047C389.713,-0.025 389.588,0.003 389.464,0.036C389.38,0.048 389.297,0.062 389.214,0.078C389.172,0.091 389.13,0.105 389.088,0.12C389.06,0.133 389.032,0.147 389.005,0.162C388.651,0.268 388.314,0.422 388.002,0.621C387.974,0.648 387.946,0.676 387.919,0.705C387.14,1.245 386.577,2.044 386.332,2.96L376.977,25.387C379.224,26.78 381.713,27.849 384.369,28.477L390.132,14.695L396.439,30.816C394.438,31.279 392.36,31.526 390.216,31.526C380.818,31.526 372.583,26.825 367.622,19.665C366.805,18.442 365.365,17.779 363.904,17.953C361.942,18.182 360.445,19.863 360.445,21.839C360.445,22.663 360.706,23.467 361.19,24.134C367.561,33.327 378.21,39.336 390.216,39.336C393.357,39.336 396.413,38.897 399.32,38.125L408.926,62.641C409.465,64.282 411.007,65.398 412.735,65.398C414.934,65.398 416.745,63.588 416.745,61.389C416.745,60.796 416.613,60.211 416.36,59.676L406.796,35.244C411.801,32.59 416.08,28.755 419.283,24.135C419.739,23.479 419.983,22.699 419.983,21.9C419.983,19.752 418.215,17.985 416.067,17.985C414.786,17.985 413.583,18.614 412.852,19.666C410.523,23.025 407.474,25.848 403.914,27.893L394.104,2.792C394.025,2.575 393.927,2.366 393.811,2.166C393.798,2.138 393.784,2.11 393.77,2.082C393.662,1.877 393.536,1.681 393.394,1.498C393.38,1.47 393.366,1.442 393.352,1.414C393.285,1.342 393.215,1.272 393.143,1.205C393.116,1.177 393.088,1.149 393.06,1.122C392.993,1.05 392.923,0.98 392.851,0.913C392.823,0.885 392.796,0.857 392.768,0.829C392.686,0.771 392.602,0.715 392.517,0.662C392.383,0.57 392.243,0.487 392.099,0.412C392.003,0.366 391.906,0.324 391.807,0.286C391.779,0.272 391.751,0.258 391.723,0.245C391.627,0.213 391.529,0.185 391.431,0.161C391.308,0.113 391.182,0.071 391.055,0.036C390.794,-0.018 390.528,-0.046 390.262,-0.048C390.123,-0.055 389.983,-0.055 389.844,-0.048L389.84,-0.047ZM372.13,37.039L369,44.556C368.751,45.088 368.622,45.668 368.622,46.255C368.622,48.455 370.432,50.265 372.632,50.265C374.306,50.265 375.812,49.217 376.392,47.646L379.525,40.087C376.932,39.32 374.461,38.317 372.132,37.039L372.13,37.039Z" style="fill:white;fill-rule:nonzero;"/>
                </g>
            </g>
        </g>
    </g>
    <defs>
        <linearGradient id="_Linear2" x1="0" y1="0" x2="1" y2="0" gradientUnits="userSpaceOnUse" gradientTransform="matrix(-38.0649,-77.6524,77.6524,-38.0649,258.702,355.285)"><stop offset="0%" style="stop-color:rgb(104,126,103);stop-opacity:1"/><stop offset="52%" style="stop-color:rgb(104,126,103);stop-opacity:1"/><stop offset="100%" style="stop-color:rgb(131,161,120);stop-opacity:1"/></linearGradient>
        <linearGradient id="_Linear4" x1="0" y1="0" x2="1" y2="0" gradientUnits="userSpaceOnUse" gradientTransform="matrix(106.807,78.9149,-78.9149,106.807,235.158,314.647)"><stop offset="0%" style="stop-color:rgb(104,126,103);stop-opacity:1"/><stop offset="13%" style="stop-color:rgb(104,126,103);stop-opacity:1"/><stop offset="69%" style="stop-color:rgb(155,180,143);stop-opacity:1"/><stop offset="90%" style="stop-color:rgb(155,180,143);stop-opacity:1"/><stop offset="100%" style="stop-color:rgb(155,180,143);stop-opacity:1"/></linearGradient>
        <linearGradient id="_Linear5" x1="0" y1="0" x2="1" y2="0" gradientUnits="userSpaceOnUse" gradientTransform="matrix(97.417,0,0,97.417,192.862,320.348)"><stop offset="0%" style="stop-color:rgb(155,180,143);stop-opacity:1"/><stop offset="9%" style="stop-color:rgb(155,180,143);stop-opacity:1"/><stop offset="30%" style="stop-color:rgb(155,180,143);stop-opacity:1"/><stop offset="86%" style="stop-color:rgb(104,126,103);stop-opacity:1"/><stop offset="100%" style="stop-color:rgb(104,126,103);stop-opacity:1"/></linearGradient>
        <linearGradient id="_Linear7" x1="0" y1="0" x2="1" y2="0" gradientUnits="userSpaceOnUse" gradientTransform="matrix(97.417,0,0,97.417,192.862,279.968)"><stop offset="0%" style="stop-color:rgb(155,180,143);stop-opacity:1"/><stop offset="9%" style="stop-color:rgb(155,180,143);stop-opacity:1"/><stop offset="30%" style="stop-color:rgb(155,180,143);stop-opacity:1"/><stop offset="86%" style="stop-color:rgb(104,126,103);stop-opacity:1"/><stop offset="100%" style="stop-color:rgb(104,126,103);stop-opacity:1"/></linearGradient>
        <linearGradient id="_Linear9" x1="0" y1="0" x2="1" y2="0" gradientUnits="userSpaceOnUse" gradientTransform="matrix(-60.0806,-122.564,122.564,-60.0806,304.472,357.588)"><stop offset="0%" style="stop-color:rgb(104,126,103);stop-opacity:1"/><stop offset="52%" style="stop-color:rgb(104,126,103);stop-opacity:1"/><stop offset="100%" style="stop-color:rgb(131,161,120);stop-opacity:1"/></linearGradient>
    </defs>
</svg>
